HIERARCHY
ROOT hip
{
	OFFSET 0.000000 0.000000 0.000000 
	CHANNELS 6 Xposition Yposition Zposition Xrotation Zrotation Yrotation
	JOINT abdomen
	{
		OFFSET 0.000000 3.402643 0.000000 
		CHANNELS 3 Xrotation Zrotation Yrotation
		JOINT chest
		{
			OFFSET 0.000000 8.438565 -0.680529 
			CHANNELS 3 Xrotation Zrotation Yrotation
			JOINT neck
			{
				OFFSET 0.000000 10.207942 -0.272212 
				CHANNELS 3 Xrotation Zrotation Yrotation
				JOINT head
				{
					OFFSET 0.000000 3.130431 0.000000 
					CHANNELS 3 Xrotation Zrotation Yrotation
					End Site
					{
						OFFSET 0.000000 3.130435 0.000000 
					}
				}
			}
			JOINT lCollar
			{
				OFFSET 3.470700 6.669187 -0.816635 
				CHANNELS 3 Yrotation Zrotation Xrotation
				JOINT lShldr
				{
					OFFSET 3.198488 0.000000 0.000000 
					CHANNELS 3 Zrotation Yrotation Xrotation
					JOINT lForeArm
					{
						OFFSET 10.139888 0.000000 0.000000 
						CHANNELS 3 Yrotation Zrotation Xrotation
						JOINT lHand
						{
							OFFSET 8.370511 0.000000 0.000000 
							CHANNELS 3 Zrotation Yrotation Xrotation
							End Site
							{
								OFFSET 4.083176 0.000000 0.000000 
							}
						}
					}
				}
			}
			JOINT rCollar
			{
				OFFSET -3.470700 6.669187 -0.816635 
				CHANNELS 3 Yrotation Zrotation Xrotation
				JOINT rShldr
				{
					OFFSET -3.198488 0.000000 0.000000 
					CHANNELS 3 Zrotation Yrotation Xrotation
					JOINT rForeArm
					{
						OFFSET -10.139888 0.000000 0.000000 
						CHANNELS 3 Yrotation Zrotation Xrotation
						JOINT rHand
						{
							OFFSET -8.370511 0.000000 0.000000 
							CHANNELS 3 Zrotation Yrotation Xrotation
							End Site
							{
								OFFSET -4.083176 0.000000 0.000000 
							}
						}
					}
				}
			}
		}
	}
	JOINT lThigh
	{
		OFFSET 5.308129 -1.633274 1.361059 
		CHANNELS 3 Xrotation Zrotation Yrotation
		JOINT lShin
		{
			OFFSET -2.041588 -20.007561 0.000000 
			CHANNELS 3 Xrotation Zrotation Yrotation
			JOINT lFoot
			{
				OFFSET 0.000000 -19.190928 -1.224953 
				CHANNELS 3 Xrotation Yrotation Zrotation
				End Site
				{
					OFFSET 0.000000 -2.449906 4.627600 
				}
			}
		}
	}
	JOINT rThigh
	{
		OFFSET -5.308129 -1.633274 1.361059 
		CHANNELS 3 Xrotation Zrotation Yrotation
		JOINT rShin
		{
			OFFSET 2.041588 -20.007561 0.000000 
			CHANNELS 3 Xrotation Zrotation Yrotation
			JOINT rFoot
			{
				OFFSET 0.000000 -19.190928 -1.224953 
				CHANNELS 3 Xrotation Yrotation Zrotation
				End Site
				{
					OFFSET 0.000000 -2.449906 4.627600 
				}
			}
		}
	}
}
MOTION
Frames: 15
Frame Time: 0.033333
-7.742197 49.341309 6.979149 -3.578782 -1.169708 -22.876225 0.000000 0.000000 0.000000 4.529499 2.989497 -4.331987 8.624416 3.389762 -21.102638 8.966867 -2.563675 -15.181923 -10.486790 3.476151 5.219406 -68.724281 4.564716 20.813848 -46.356567 -9.240232 11.428743 9.980398 9.501611 -3.047302 1.946269 5.332422 4.448503 61.216110 -17.544870 14.999403 56.353310 7.266836 -55.387417 -13.223645 -4.252943 -3.417650 2.575750 2.703321 4.905622 12.371777 -1.017004 25.028786 -9.103409 0.514168 -6.368633 1.920875 -8.761508 -5.645032 7.652529 -1.172029 8.319271 -6.269364 -0.448485 8.513663 
-7.854891 49.505260 6.881573 -3.076113 -0.999328 -22.796801 0.000000 0.000000 0.000000 3.825101 2.627709 -4.741186 8.131435 3.342179 -21.591099 8.513494 -2.771531 -15.145195 -10.993361 3.337713 4.555686 -68.943779 2.537584 22.441315 -47.060738 -9.122246 12.639462 11.163992 8.911024 -3.034612 1.305009 5.059368 3.841226 60.700424 -15.718612 15.222944 55.754608 7.356053 -55.205372 -13.102528 -5.029679 -3.341139 3.459141 2.816514 4.974857 9.295025 -1.123489 24.928656 -7.570350 0.369135 -5.733894 3.160599 -8.566792 -6.061372 4.010509 -0.673935 8.308394 -4.347964 -0.301147 8.327336 
-7.893046 49.633713 6.735070 -2.124542 -0.852625 -23.215693 0.000000 0.000000 0.000000 2.899405 2.529879 -4.877769 7.588484 3.250277 -21.637598 8.124293 -2.440813 -15.209476 -11.118164 3.478252 3.717964 -69.462875 0.619359 23.328951 -47.762936 -9.007751 13.011670 10.711581 7.828523 -3.148118 1.143662 4.822760 3.026680 60.512981 -14.394146 15.137168 55.282280 7.344203 -54.468372 -13.046153 -5.427876 -3.301151 3.638164 3.132245 5.174828 6.802720 -1.327689 25.150614 -6.312449 0.282153 -5.176267 3.044064 -8.334443 -6.088112 1.839917 -0.155615 8.571535 -3.007225 -0.189675 8.033351 
-7.967137 49.722527 6.658434 -1.685333 -0.724888 -23.595823 0.000000 0.000000 0.000000 2.280608 2.305812 -4.955011 7.264266 3.104616 -21.654402 7.565784 -2.327837 -15.198498 -11.197623 3.216847 3.119968 -69.565590 -1.222642 24.966242 -48.926456 -8.939270 13.328205 11.208871 7.560410 -3.151040 1.106090 4.748921 2.458384 60.236893 -13.452742 14.996802 55.176212 7.294284 -53.801609 -13.623959 -5.550822 -3.283398 4.296104 3.242242 5.395028 4.468038 -1.488669 25.579187 -5.138154 0.203781 -4.714439 2.614425 -8.362437 -6.266359 1.603586 0.263461 9.332246 -2.820678 -0.167066 7.742803 
-8.063203 49.803875 6.573402 -1.565466 -0.685293 -24.308529 0.000000 0.000000 0.000000 1.997894 2.014320 -4.827066 7.026941 3.034866 -21.515825 7.136818 -2.347876 -15.091169 -11.173581 3.301549 2.842133 -70.153961 -2.899610 26.163960 -49.732323 -8.698174 13.678244 11.304570 6.889082 -3.199584 1.235684 4.464723 2.202939 60.698940 -12.884724 14.448102 55.340328 7.140649 -53.772411 -14.422433 -6.316558 -3.177726 5.596466 3.433346 5.995684 1.726887 -1.961644 25.897810 -3.921784 0.136343 -4.048479 2.399328 -8.292134 -6.278874 1.370366 0.467683 9.907593 -2.512108 -0.146680 7.459310 
-8.200979 49.865963 6.527246 -2.164413 -0.609768 -25.187140 0.000000 0.000000 0.000000 2.181186 1.538019 -4.591331 7.060119 2.574092 -21.360481 6.886364 -2.405001 -15.043201 -11.080991 2.759099 2.889133 -70.035965 -4.426304 27.413857 -50.680626 -8.671162 13.306249 11.447314 6.370090 -3.242944 1.345542 3.848073 2.377450 61.592842 -12.242585 13.902340 55.510078 7.097521 -56.605984 -15.930291 -7.129541 -3.038827 6.926053 3.523193 6.755038 0.673275 -2.642832 25.647659 -3.678214 0.115195 -3.758274 2.772632 -8.417384 -6.370656 1.316302 0.370069 11.039691 -2.477989 -0.143353 7.291474 
-8.272640 49.881054 6.482148 -2.154811 -0.441542 -25.274288 0.000000 0.000000 0.000000 1.941410 1.264812 -4.942570 6.984606 2.409258 -21.425804 6.249396 -1.868535 -14.910474 -11.343094 2.609507 2.636765 -70.230362 -5.196898 28.209900 -51.569366 -8.613991 13.062477 11.595820 5.918612 -3.274427 1.004798 3.673258 2.162150 62.304199 -12.287111 13.842770 55.547981 7.190375 -58.092663 -16.843121 -6.936164 -3.041132 7.198027 3.610161 6.973444 0.185345 -2.868071 25.143162 -3.520416 0.125438 -3.731055 2.672236 -8.457760 -6.482698 1.309172 0.497146 11.126098 -2.380817 -0.139802 6.785555 
-8.328160 49.894024 6.408244 -1.757994 -0.123612 -25.293032 0.000000 0.000000 0.000000 1.444316 1.176657 -5.264765 6.714253 2.323688 -21.659149 5.647784 -2.001194 -14.853246 -11.656149 2.503248 2.173688 -70.439384 -5.342043 28.621170 -51.991131 -8.481943 13.341551 11.641133 5.392348 -3.321920 0.715581 3.538401 1.701854 63.026192 -12.951731 13.925560 55.518173 7.370258 -59.381577 -17.665518 -7.628027 -2.913641 6.925782 3.678885 7.011899 -0.234311 -3.043832 24.869297 -3.323348 0.117715 -3.647526 2.039332 -8.384647 -6.127132 1.348063 0.341569 10.728590 -2.318459 -0.106464 6.660822 
-8.418442 49.909821 6.358673 -1.875936 -0.185731 -25.088034 0.000000 0.000000 0.000000 1.432735 1.224604 -5.596926 6.559084 2.243848 -22.117331 5.799726 -1.999739 -15.009392 -12.017451 2.499327 2.170836 -70.471245 -5.314975 28.987225 -51.908169 -8.600201 13.397721 12.175259 4.577286 -3.389264 0.338248 3.742147 1.702567 63.876987 -13.613188 14.084329 54.053459 7.776936 -60.774982 -16.033344 -10.093938 -2.652071 7.316647 3.854671 7.257935 -0.834123 -3.166816 24.394094 -2.966053 0.085233 -3.393155 2.174773 -8.127913 -5.957864 1.403127 0.214323 10.360606 -2.349260 -0.101823 6.452913 
-8.461426 49.911388 6.288633 -1.722823 0.008876 -24.648438 0.000000 0.000000 0.000000 1.223175 1.389040 -5.919538 6.347368 2.281883 -22.557922 5.292345 -2.498852 -15.083069 -12.367744 2.640095 2.044084 -70.798958 -4.870281 28.741190 -51.338234 -8.656620 13.927134 11.756460 4.555902 -3.392058 0.023678 3.878956 1.526552 65.217255 -13.904693 15.037067 53.451439 8.595623 -68.097488 -23.731501 -7.395218 -2.730247 7.001809 3.906312 7.195971 -0.883252 -3.206724 23.929527 -2.809006 0.087152 -3.264208 1.941170 -8.127361 -5.888025 1.500501 0.165486 9.788247 -2.366589 -0.131336 6.546632 
-8.461653 49.896095 6.216538 -1.250499 0.044531 -24.218756 0.000000 0.000000 0.000000 0.911056 1.893533 -6.096864 5.818361 2.652288 -22.994703 5.317429 -3.364763 -15.193122 -12.550283 3.109097 1.881326 -71.206665 -4.248968 28.377451 -50.610531 -8.767382 14.172749 11.445437 5.250542 -3.337591 0.172873 4.711785 1.224590 65.708549 -14.693107 14.112119 53.244362 8.643353 -72.513420 -28.685429 -13.193562 -1.128726 6.164150 4.088350 6.990300 -0.350843 -2.964467 23.782663 -2.895617 0.085075 -3.761521 1.483454 -7.985825 -5.796507 1.518084 0.331272 9.142782 -2.284590 -0.111966 6.436999 
-8.545738 49.893929 6.071733 -0.194276 0.213533 -24.345850 0.000000 0.000000 0.000000 0.199873 2.410003 -5.678649 5.180551 2.940800 -22.961395 4.983327 -3.753174 -15.610954 -12.077682 3.902449 1.349575 -71.978539 -3.290464 27.390987 -49.151245 -8.857837 15.484332 10.577168 5.226862 -3.352000 1.258103 5.685202 0.510025 66.208115 -15.806680 13.005622 52.707134 8.528115 -76.830856 -32.672447 -17.888678 0.567605 4.821964 4.559147 7.094734 0.185331 -3.024138 23.836143 -3.023391 0.107821 -3.933048 0.262555 -7.481766 -5.169046 1.454837 0.321326 8.407591 -2.002819 -0.089050 6.019954 
-8.693316 49.918964 6.197569 -1.187773 0.455490 -23.858173 0.000000 0.000000 0.000000 0.576681 2.109248 -5.540534 4.870878 2.987016 -23.705938 5.999513 -4.985223 -16.019798 -12.167306 3.565548 1.635654 -72.243561 -1.517610 25.991613 -48.444832 -8.753109 16.490160 10.070488 5.935354 -3.302130 1.604471 6.145782 0.794508 66.766876 -16.553226 11.319491 51.634911 8.355371 -81.013519 -34.422825 -20.583412 1.636825 6.026441 3.912058 6.667752 -0.518905 -2.800601 23.899261 -2.686599 0.085871 -4.022134 1.472893 -8.149802 -6.046375 1.433628 0.506613 8.923036 -2.305811 -0.093959 6.297373 
-8.802836 49.909630 6.104739 -0.639032 0.769576 -23.605717 0.000000 0.000000 0.000000 -0.016435 2.206666 -5.482337 4.576087 2.954183 -23.969189 6.063430 -5.106255 -16.424530 -11.963543 3.510112 1.091383 -72.118484 0.844166 24.437881 -47.859989 -8.582212 16.758242 9.338134 6.501892 -3.283147 1.731933 6.579105 0.225265 66.527763 -17.047829 10.305863 51.388042 8.323543 -84.275482 -33.881863 -20.700441 1.589312 5.210669 3.982326 6.427043 -0.346209 -2.668519 23.808115 -2.573705 0.082862 -4.190450 0.848896 -8.201475 -6.087733 1.488744 0.759695 8.649792 -2.290263 -0.089980 6.182921 
-8.949586 49.924438 6.007374 -0.094579 0.851625 -23.371775 0.000000 0.000000 0.000000 -0.469980 2.283788 -5.648984 4.175148 3.062466 -24.294502 6.240935 -5.309655 -16.528858 -11.981030 3.817143 0.698476 -71.975349 3.310777 22.773430 -47.143028 -8.387302 16.567511 9.122189 6.947747 -3.259995 1.411641 6.928586 -0.207054 65.490356 -16.807447 9.976803 52.086197 8.538746 -83.908051 -30.568647 -18.499968 0.451404 4.426965 4.252117 6.343979 -0.118575 -2.508327 23.870342 -2.450010 0.090305 -4.312145 0.380016 -8.044591 -6.104750 1.373189 1.110766 8.446336 -2.172488 -0.077882 5.817358 
